<svg xmlns="http://www.w3.org/2000/svg" width="16" height="16" viewBox="0 0 16 16"><path fill="#F7931A" fill-rule="nonzero" d="M13.638 9.521A5.906 5.906 0 1 1 2.177 6.664 5.906 5.906 0 0 1 13.638 9.52zm-3.126-2.27c.118-.786-.48-1.209-1.299-1.49l.266-1.066-.649-.161-.258 1.036c-.17-.042-.345-.082-.52-.122l.261-1.043-.648-.162L7.4 5.308c-.142-.033-.28-.064-.414-.098v-.003l-.894-.223-.172.692s.48.11.47.117c.263.066.31.24.303.377L6.39 7.383a.537.537 0 0 1 .068.022l-.069-.017-.424 1.7c-.032.079-.113.199-.297.153.007.01-.47-.117-.47-.117l-.323.742.844.21.462.12-.268 1.076.647.162.266-1.066c.177.048.348.092.516.134l-.264 1.06.648.162.268-1.075c1.105.21 1.937.125 2.286-.875.282-.805-.014-1.269-.595-1.572.423-.097.742-.376.827-.951zm-1.48 2.076c-.2.805-1.556.37-1.995.261l.355-1.427c.44.11 1.849.327 1.64 1.166zm.2-2.088c-.183.732-1.31.36-1.677.269l.323-1.294c.366.091 1.544.261 1.354 1.025z"/></svg>