<svg xmlns="http://www.w3.org/2000/svg" width="16" height="16" viewBox="0 0 16 16"><path fill="#1C75BC" fill-rule="nonzero" d="M4.515 4.256l-.49 1.5-.004.014h7.346l-.003.013-.58 1.768-.576 1.757s-1.654.002-3.675.002H2.859l-.096.292c-.233.71-.481 1.471-.481 1.474 0 .006 8.112.004 8.226-.002.288-.015.55-.09.858-.246.287-.145.527-.323.777-.572.283-.284.487-.583.608-.892.036-.092 1.172-3.56 1.194-3.646a1.5 1.5 0 0 0 .053-.39 1.368 1.368 0 0 0-.07-.508 1.133 1.133 0 0 0-.603-.692 1.24 1.24 0 0 0-.387-.114c-.065-.01-.295-.011-4.204-.012L4.599 4l-.084.256zM2.283 7.533C2.127 7.984 2 8.357 2 8.36c0 .005.491.007 2.183.007h2.184l.007-.02a957.892 957.892 0 0 0 .561-1.626c.004-.01-.102-.01-2.182-.01H2.566l-.283.82z"/></svg>