<svg xmlns="http://www.w3.org/2000/svg" width="16" height="16" viewBox="0 0 16 16"><g fill="none" fill-rule="nonzero"><path fill="#988430" d="M7.432 2.043a5.986 5.986 0 0 1 6.013 3.477 6.02 6.02 0 0 1 .417 3.671 5.968 5.968 0 0 1-1.824 3.22 5.968 5.968 0 0 1-3.393 1.536c-.81.075-1.638.015-2.417-.233a5.996 5.996 0 0 1-3.257-2.473 5.94 5.94 0 0 1-.952-3.296 5.947 5.947 0 0 1 1.306-3.68 5.992 5.992 0 0 1 4.107-2.222z"/><path fill="#7A6A2A" d="M7.881 2.202a5.827 5.827 0 0 1 3.05.794 5.81 5.81 0 0 1 2.295 2.498 5.796 5.796 0 0 1-2.129 7.405 5.725 5.725 0 0 1-3.193.894 5.72 5.72 0 0 1-3.092-.952 5.792 5.792 0 0 1-2.437-6.247A5.793 5.793 0 0 1 4.42 3.44a5.79 5.79 0 0 1 3.461-1.237z"/><path fill="#BA9F33" d="M5.679 2.818a5.684 5.684 0 0 1 3.213-.425c1.13.176 2.2.708 3.025 1.5a5.669 5.669 0 0 1 1.743 3.685 5.664 5.664 0 0 1-1.563 4.346c-.016-.33-.02-.661-.027-.991-.002-.245-.057-.485-.077-.728.004-.085.014-.17.017-.254.012-.23-.11-.444-.079-.675.03-.325-.14-.619-.224-.923-.084-.214-.078-.45-.16-.664-.058-.828-.379-1.663-1.007-2.226l.08-.115c.026.054.054.106.082.158.146-.166.169-.393.212-.6.082-.369.025-.75-.038-1.117-.049-.188-.087-.406-.245-.536-.168-.1-.46-.1-.557.095l-.013.046a.84.84 0 0 1-.302.311c-.226.14-.349.403-.59.525-.15.049-.304-.035-.457-.017-.289.03-.582.045-.862.125-.266-.042-.533-.084-.796-.137 0-.02.002-.057.004-.077-.12-.117-.231-.25-.275-.416-.08-.308-.27-.605-.557-.756a4.813 4.813 0 0 0-.122-.046 3.45 3.45 0 0 0-.074.084l-.037.086c-.064.143-.05.302-.054.454-.004.393-.045.796-.211 1.157-.268-.001-.535-.003-.802 0-.053.12-.034.254-.037.381-.43.398-.602.984-.682 1.547 0 .043.001.087.005.13l.003.069c-.19.249-.222.574-.271.873.07-.004.138-.008.208-.01l-.191.018a3.184 3.184 0 0 0-.03.206l.186-.07.034.002c-.075.03-.147.065-.219.1l.006.175c.084-.044.17-.085.254-.128l-.03.034c-.072.047-.164.072-.22.138.001.157.023.314.044.469.056.353.18.697.36 1.006a1.13 1.13 0 0 1-.186.638c.037.07.1.136.103.218-.023.14-.136.259-.112.408.03.361-.103.706-.26 1.024A5.65 5.65 0 0 1 2.38 8.804a5.683 5.683 0 0 1 .474-3.205A5.693 5.693 0 0 1 5.68 2.82z"/><path fill="#C79C3B" d="M6.03 2.99a3.45 3.45 0 0 1 .074-.084c.04.014.081.03.122.046.068.214.174.43.152.66-.007.155-.041.321.037.465.033.082.115.125.184.172-.042.032-.083.064-.127.093-.18.072-.325.206-.46.342h-.157c.286-.344.412-.797.411-1.24.006-.183-.135-.317-.236-.454z"/><path fill="#B58634" d="M6.226 2.952c.286.151.477.448.557.756.044.166.154.3.275.416l-.004.077c-.15-.05-.334-.08-.455.048-.07-.047-.15-.09-.184-.172-.078-.144-.044-.31-.037-.464.022-.232-.084-.447-.152-.661z"/><path fill="#A17C34" d="M10.074 3.348c.098-.196.389-.194.557-.095.158.13.196.348.245.536.063.367.12.748.038 1.117-.043.207-.066.434-.212.6a2.728 2.728 0 0 1-.081-.158c-.028-.081-.051-.164-.077-.246.1-.224.151-.47.178-.713.024-.218-.12-.397-.265-.54-.077-.202-.232-.353-.383-.5z"/><path fill="#B89844" d="M10.06 3.394l.014-.046c.151.148.306.299.383.5-.004.06-.018.125-.08.147-.177.09-.375.155-.505.314-.089.113-.262.177-.276.334.02.013.057.04.076.055l-.07.091.068.07c.094-.1.24-.108.362-.151l-.058.143.157-.033a1.796 1.796 0 0 1-.213.203l-.034-.018c-.093-.046-.184-.109-.291-.113l-.021-.063a.654.654 0 0 1-.173-.033l.062-.154-.13.062c.088-.144.174-.29.26-.436l.024-.042c.118-.22.292-.402.411-.62.042-.063.04-.138.035-.21z"/><path fill="#AC8132" d="M9.169 4.23c.241-.122.364-.386.59-.525-.122.147-.146.335-.144.519l-.024.042a.992.992 0 0 0-.013-.21 2.97 2.97 0 0 1-.412.665 1.171 1.171 0 0 0-.307-.037c.058-.11.131-.21.209-.304-.4-.095-.813-.003-1.218-.042.28-.08.573-.095.862-.125.153-.018.306.066.457.017z"/><path fill="#927238" d="M10.457 3.849c.144.143.289.322.265.54-.027.243-.078.489-.178.713-.075.06-.151.118-.227.177l-.11-.08-.018-.012c.117-.251.306-.488.319-.774a2.462 2.462 0 0 0-.658.113c-.088.022-.133.102-.178.172l-.076-.055c.014-.157.187-.221.276-.334.13-.159.328-.224.505-.313.062-.023.076-.088.08-.147z"/><path fill="#D2A83E" d="M6.599 4.249c.12-.128.305-.097.455-.048.263.053.53.095.796.137.405.039.817-.053 1.218.042a1.824 1.824 0 0 0-.209.304c-.655 0-1.311.003-1.967 0-.027-.093-.031-.209-.117-.27-.088-.064-.2-.06-.303-.072.044-.029.085-.061.127-.093z"/><path fill="#543E26" d="M9.85 4.526c.212-.068.435-.104.658-.113-.013.286-.202.523-.319.774a2.514 2.514 0 0 0-.27-.166c.075-.062.148-.13.212-.203l-.157.033.058-.143c-.122.043-.268.052-.362.15-.023-.022-.046-.045-.068-.069l.07-.091c.045-.07.09-.15.177-.172z"/><path fill="#F3EBDB" d="M4.926 4.687c.267-.003.534-.001.802 0l.049-.002h.078l.157-.001h.88c.656.003 1.312 0 1.967 0 .104 0 .207.01.307.037.079.02.156.047.233.073.055.019.114.03.173.033l.02.063c.108.004.199.067.292.113-.06.156-.184.271-.298.389.1.055.2.113.291.183.117-.119.224-.247.33-.375l.11.078c.077.059.152.12.223.185.628.563.949 1.398 1.007 2.226.008.109.01.217.013.326-.002.43-.041.864-.154 1.28-.078.29-.19.571-.34.83a2.92 2.92 0 0 1-.359.464 2.31 2.31 0 0 1-.286.26 27.83 27.83 0 0 0-.14-.072c-.08.045-.153.115-.249.117-.128.008-.247.064-.373.086.122-.183.373-.32.332-.574l-.206.01c.023-.089.046-.178.067-.268a15.193 15.193 0 0 1-.09-.06c.077-.087.156-.173.229-.264-.156.036-.296.113-.443.171.282-.411.53-.846.738-1.3.119-.28.277-.559.28-.872.011-.2-.117-.373-.123-.572-.018-.228-.017-.492-.207-.654-.326.067-.657.004-.983-.034-.088-.013-.176.003-.262.017-.015-.019-.031-.036-.047-.053-.101-.102-.209-.208-.347-.256-.128-.02-.257-.004-.386-.003l-.018-.004c-.141-.062-.29-.143-.45-.114-.133.014-.212.135-.318.202-.11.07-.219.142-.302.243.11.188.306.29.51.343a12.06 12.06 0 0 1-.027.366 1.343 1.343 0 0 0-.35.18c-.057-.124-.084-.26-.139-.383-.059-.079-.14-.137-.215-.2l-.05.159-.114.06c-.005-.093-.008-.185-.024-.277-.037-.165-.155-.296-.218-.451.01-.159.059-.314.063-.473-.08.032-.16.06-.238.096-.106.042-.159.154-.25.217-.089.04-.185.054-.278.078l.011-.034c.084-.072.107-.18.128-.283l-.157.077c-.066-.093.034-.155.091-.215-.084-.079-.199-.14-.316-.097-.197.069-.283.287-.303.48-.081.001-.162.005-.242.003l.094-.174c-.04-.088-.128-.121-.213-.15.004-.22 0-.438 0-.657l.003-.192c.003-.127-.016-.26.037-.38z"/><path fill="#DCDAD7" d="M9.884 5.003l.034.018c.094.05.185.105.271.166l.018.013a6.135 6.135 0 0 1-.33.375 2.344 2.344 0 0 0-.29-.183c.113-.118.236-.233.297-.39z"/><path fill="#A78E32" d="M4.207 6.615c.08-.563.252-1.15.682-1.547l-.003.192c-.284.298-.449.696-.526 1.096-.03.136-.092.263-.148.39a1.38 1.38 0 0 1-.005-.131z"/><path fill="#EBCC73" d="M4.36 6.356c.077-.4.242-.798.526-1.096 0 .219.004.438 0 .657-.135.115-.195.304-.369.373a.857.857 0 0 1-.141.332c-.051.066-.107.128-.161.192l-.003-.069c.056-.126.117-.253.148-.389z"/><path fill="#D7D7D5" d="M5.55 5.758c.118-.043.232.018.316.097-.057.06-.157.122-.091.215l.157-.077c-.02.104-.044.21-.127.283a1.298 1.298 0 0 0-.324-.005c.007-.064.011-.13.027-.192.05-.053.12-.076.182-.108-.038-.038-.068-.088-.117-.111-.117.031-.235.12-.252.247.003.058.012.116.02.174l-.077-.003H5.24l.007-.04c.02-.193.106-.411.303-.48z"/><path fill="#F8F3E4" d="M6.321 6.015c.078-.035.158-.064.238-.096-.004.16-.053.314-.063.473.063.155.18.286.218.451.016.092.019.184.024.277l.113-.06.051-.159c.074.063.156.121.215.2.055.124.082.26.14.383.107-.076.224-.138.35-.18.01-.122.02-.243.026-.366l.001-.052c-.072-.06-.186-.1-.196-.207-.009-.138.078-.257.175-.345.027.005.054.012.082.016.053-.004.079-.035.077-.094.07-.003.142 0 .212.005-.071.099-.162.19-.288.211 0 .067.001.133.005.2-.004.066-.011.132-.015.2l-.001.045c0 .157 0 .315.002.473 0 .787-.003 1.574.001 2.361l.016.061c.355-.023.758.088 1.066-.143.43-.31.608-.852.653-1.36.05-.6-.057-1.242-.432-1.73.086-.013.174-.029.262-.016.326.038.657.1.983.034.19.162.19.426.207.655.006.198.134.37.123.57-.003.314-.162.593-.28.874a8.72 8.72 0 0 1-.738 1.299c.147-.058.287-.135.443-.17-.073.09-.152.176-.23.262l.09.061c-.02.09-.043.18-.066.268l.206-.01c.04.254-.21.391-.332.574.126-.022.245-.078.373-.086.096-.002.17-.072.249-.116l.14.071a2.794 2.794 0 0 1-1.738.564c-.54-.002-1.08.003-1.62-.002h-.702c-.172 0-.344 0-.516.002l-.15-.001c-.23-.001-.46.008-.689-.002-.08.007-.113-.083-.113-.148-.01-.182 0-.364-.004-.546.002-.208.003-.416-.002-.624 0-.09.014-.18.035-.268.289-.03.579.008.868-.012v-.296l.001-.228c.018.066.04.131.061.197.137-.026.288-.06.391.06.241-.213.596-.203.884-.32.063-.164.209-.295.19-.483a1.872 1.872 0 0 1-.047-.01c-.301-.095-.583.1-.878.122a.761.761 0 0 1-.51-.265l.033-.13-.087-.072a2.805 2.805 0 0 1 0-.262.356.356 0 0 1 .19-.23c.03-.156.056-.311.083-.466a.696.696 0 0 0-.31-.218V7.2c-.002-.104-.002-.208 0-.312.001-.179 0-.358-.002-.537l.004-.04c.093-.025.19-.04.278-.08.091-.062.144-.174.25-.216z"/><path fill="#F4EFC8" d="M4.517 6.29c.174-.07.234-.258.369-.373l.006.31.113.014c.08.002.161-.002.242-.004l-.007.04-.33-.004a1.158 1.158 0 0 0-.026.187c-.215.083-.344.28-.52.417.002-.085.004-.17.012-.255.07-.1.118-.213.141-.332z"/><path fill="#D7D7D5" d="M7.425 6.352c.106-.067.185-.188.319-.202.16-.029.308.052.45.114-.07-.002-.14 0-.21-.003a2.158 2.158 0 0 0-.212-.005c-.058.003-.083.035-.077.094-.028-.004-.055-.01-.082-.016-.097.088-.184.207-.175.345.01.107.124.146.196.207v.052c-.205-.053-.401-.155-.51-.343.082-.1.19-.174.3-.243z"/><path fill="#E5C66B" d="M4.91 6.273l.33.004.024.001a.487.487 0 0 0 .19.214c.027.02.054.042.08.064-.087.132-.213.236-.274.383-.062.025-.122.052-.184.075-.013-.01-.04-.026-.052-.034a9.69 9.69 0 0 0 .05-.087l-.141-.033a3.066 3.066 0 0 1-.05-.4c.004-.063.014-.125.027-.187z"/><path fill="#252211" d="M7.984 6.26c.07.003.14.002.21.004l.017.004c.091.059.181.122.256.202a.834.834 0 0 1-.43.418c-.113.035-.235.023-.352.029v-.046c.09 0 .178-.004.266-.009a.555.555 0 0 1-.25-.19 3.198 3.198 0 0 1-.005-.2c.126-.02.217-.112.288-.211z"/><path fill="#D2B257" d="M8.211 6.268c.128 0 .258-.018.386.003.138.048.246.154.347.256-.13.136-.216.304-.328.453-.111.153-.31.18-.467.265a1.162 1.162 0 0 1-.462.145c-.002-.158-.002-.316-.002-.473.117-.006.239.006.353-.029a.835.835 0 0 0 .429-.418 1.323 1.323 0 0 0-.256-.202z"/><path fill="#E6BD62" d="M5.455 6.492c.13.012.212-.116.334-.141.001.18.003.358.001.537-.098.024-.2.077-.302.039a.282.282 0 0 0-.228.012c.061-.147.187-.251.273-.383a2.39 2.39 0 0 0-.078-.064z"/><path fill="#F4ECB4" d="M4.365 6.877c.175-.137.304-.334.519-.417.007.134.024.268.049.4l.14.033a9.781 9.781 0 0 1-.05.087c-.138.105-.318.183-.386.355-.078.211-.07.44-.1.66-.05-.05-.125-.09-.12-.172-.01-.166.033-.329.043-.493-.077.111-.123.239-.169.365-.02.08-.114.096-.174.136l-.186.07c.008-.07.017-.137.03-.206l.19-.019-.207.011c.049-.299.082-.624.27-.874.055-.063.11-.125.162-.191a3.81 3.81 0 0 0-.011.255z"/><path fill="#DFCD88" d="M8.944 6.527l.047.053c.375.487.482 1.13.432 1.73-.065.034-.13.067-.19.108-.105.072-.161.193-.265.264-.182.09-.411.069-.573.203-.093.104-.156.233-.264.324.058.059.12.113.173.176.028.049.018.111.046.16.052.042.111.074.168.11a1.582 1.582 0 0 1-.444-.004c-.138-.026-.263.052-.386.1-.004-.787 0-1.574-.001-2.361.163-.013.318-.067.462-.145.156-.086.356-.112.467-.265.112-.149.197-.317.328-.453z"/><path fill="#F3E19D" d="M4.637 7.335c.068-.172.248-.25.387-.355l.052.034.107.074c-.187.007-.37.127-.393.323-.032.25-.118.489-.142.74-.024.18.142.297.194.454.016.085.021.172.043.257-.025.109-.047.219-.064.33-.037 0-.073.001-.11.003-.038.089-.084.176-.113.269.033.18.092.354.133.532l-.033.08c-.09-.096-.14-.231-.258-.298-.03-.052-.063-.1-.093-.151a2.87 2.87 0 0 1-.36-1.006c.016-.104.036-.208.054-.312.075.15.067.331.167.467.068-.018.137-.034.207-.047l.034.041a.756.756 0 0 0 .153-.345c-.047.063-.09.13-.13.198-.058-.09-.126-.176-.159-.278-.018-.118-.014-.238-.023-.356a4.756 4.756 0 0 0-.129.025l.03-.034c.039-.042.075-.086.112-.13-.05-.006-.101-.014-.152-.017l-.034-.002c.06-.04.153-.057.174-.136.046-.126.092-.254.169-.365-.01.165-.054.327-.043.493-.005.081.07.123.12.173.03-.221.022-.45.1-.661z"/><path fill="#252211" d="M4.79 7.411c.022-.196.206-.316.393-.323.209-.011.412.043.607.112v.011c.001.183-.001.366.001.549v.033c-.062.06-.12.124-.179.186-.1.085-.228.12-.352.151l-.023.106-.026.119c-.175-.163-.278-.382-.394-.586-.065-.109-.04-.24-.027-.358z"/><path fill="#6E6342" d="M4.648 8.15c.024-.25.11-.49.142-.739-.013.118-.038.25.027.358.116.204.219.423.394.586l.026-.119.193.011c.09.073.187.138.265.225.084-.16-.034-.315-.019-.48l-.064-.013c.06-.062.117-.126.179-.186v.836c-.315-.098-.651-.212-.98-.106.308.14.655.151.98.237l-.002.276c-.15.067-.287.16-.433.236-.152-.102-.263-.252-.414-.356l-.057-.054c-.022-.085-.027-.172-.043-.257-.052-.157-.218-.275-.194-.455z"/><path fill="#E7E3DB" d="M5.791 7.76c.024.12.044.242.038.365a2.805 2.805 0 0 0 0 .262l.086.073-.034.13a.758.758 0 0 0-.017.194c.446.157 1.004.267 1.406-.052l.047.01c.019.188-.127.32-.19.482-.288.118-.643.108-.884.322-.103-.121-.254-.087-.391-.061-.021-.066-.043-.13-.06-.197-.004-.084-.003-.168-.003-.252l.002-.276v-.13-.87z"/><path fill="#F4ECB4" d="M4.161 8.014c.043-.01.086-.017.129-.025.009.118.005.238.023.356.033.102.101.188.159.278-.02.035-.04.07-.057.106a2.57 2.57 0 0 0-.207.047c-.1-.136-.092-.318-.168-.467-.017.104-.037.207-.054.312-.02-.156-.043-.312-.045-.469.057-.066.149-.091.22-.138z"/><path fill="#CCA847" d="M11.56 8.015c.055.18.107.362.158.545.043.165.137.318.136.494a.4.4 0 0 0 .077.222c-.03.231.09.445.079.675-.003.084-.013.169-.017.254a1.07 1.07 0 0 0-.106-.147c-.045.137-.015.308-.128.415-.049-.07-.074-.185-.174-.195-.145-.023-.28.048-.378.15-.128.138-.326.144-.5.161.138-.14.252-.3.358-.464.095.03.159-.055.23-.1.07-.06.161-.08.24-.126.065-.104.114-.221.142-.342-.022-.08-.06-.153-.077-.234l-.122.03-.072-.057c.113-.417.151-.85.154-1.281z"/><path fill="#ECD592" d="M9.232 8.418c.06-.04.126-.074.19-.109-.044.509-.221 1.05-.652 1.36-.308.23-.711.12-1.066.143a3.31 3.31 0 0 1-.016-.06c.123-.048.248-.127.386-.1.147.02.297.025.444.002-.057-.035-.116-.067-.168-.108-.028-.05-.018-.112-.046-.16-.053-.064-.115-.118-.173-.177.108-.09.171-.22.264-.324.162-.134.39-.112.573-.203.104-.071.16-.192.264-.264z"/><path fill="#EED88B" d="M4.885 8.862l.057.054c.015.199.135.366.229.536.075.14.203.243.334.33.093.026.19.022.285.03-.29.02-.58-.017-.868.012a1.096 1.096 0 0 0-.035.268 41.77 41.77 0 0 0-.156-.096c-.041-.178-.1-.353-.133-.532.029-.093.075-.18.113-.27.037 0 .073-.002.11-.003.017-.11.039-.22.064-.33z"/><path fill="#DFC677" d="M4.942 8.916c.151.104.262.254.414.356.043.038.082.08.123.119.09.071.204.094.312.125v.296c-.096-.007-.193-.004-.286-.03a.972.972 0 0 1-.334-.33c-.094-.17-.214-.337-.229-.536z"/><path fill="#C0993A" d="M11.406 9.296l.072.057.122-.03c.018.08.055.155.077.234a1.11 1.11 0 0 1-.143.342c-.078.046-.17.066-.24.125-.07.046-.134.13-.229.1a3.37 3.37 0 0 0 .34-.828z"/><path fill="#E5CB7A" d="M4.347 9.627l.093.15c.086.335.205.686.45.939.002.182-.007.364.003.546 0 .065.033.155.113.148.23.01.459.001.688.002-.089.118-.024.257-.021.389.002.154.084.291.107.442-.064.163-.172.304-.258.457-.085.012-.175-.021-.257.002-.049.067-.076.162-.168.18a5.923 5.923 0 0 1-1.205-.968c.156-.317.289-.662.259-1.023-.024-.15.089-.268.112-.408-.004-.083-.066-.148-.103-.218a1.13 1.13 0 0 0 .187-.638z"/><path fill="#BA9040" d="M11.887 10.058c.039.046.075.095.106.147.02.243.075.483.077.728.006.33.011.66.027.99a5.428 5.428 0 0 1-1.259.99c-.176-.127-.38-.03-.54.072a.483.483 0 0 1 .124-.15c.1-.082.137-.214.24-.292.107-.096.25-.15.333-.27.085-.183.27-.282.38-.445.105-.15.276-.287.26-.486-.008-.172.027-.34.047-.509a.953.953 0 0 1 .077-.36c.113-.107.083-.277.128-.415z"/><path fill="#D8C173" d="M11.207 10.429c.098-.103.233-.174.378-.15.1.01.125.125.174.194a.954.954 0 0 0-.077.36c-.02.17-.055.337-.047.508.016.2-.155.338-.26.487-.11.163-.295.262-.38.445l-.178.002c.15-.228.243-.485.362-.729.027-.04.015-.084.001-.126-.028-.07.008-.143.004-.215-.012-.074-.044-.143-.068-.214-.126-.023-.254-.055-.383-.048-.16.03-.272.164-.417.228-.069.029-.147.036-.211.077-.128.11-.16.3-.308.39-.145.1-.273.22-.41.33-.08.076-.197.02-.293.036-.085.043-.145.123-.225.173-.105.035-.228.02-.315.098-.142.123-.35.088-.5.197-.169.086-.245.277-.407.373-.122.072-.218.178-.315.28l-.078-.096c-.135.079-.245.204-.403.237-.056-.067-.111-.149-.208-.153l.046-.099c-.034-.043-.072-.086-.133-.077-.148-.018-.297.014-.445.003a.66.66 0 0 1-.246-.232c.113-.135.166-.307.261-.453.057-.079.148-.016.219.001l.089-.202.12.015a.71.71 0 0 0 .19-.33c.065-.018.13-.038.194-.057-.001-.107.048-.2.125-.271.54.005 1.08 0 1.62.002a2.794 2.794 0 0 0 1.737-.564c.104-.077.198-.167.287-.26.174-.017.372-.023.5-.16z"/><path fill="#E0CD81" d="M10.317 11.17c.144-.063.256-.198.416-.227.13-.007.257.025.383.048.025.07.056.14.068.214.004.072-.032.145-.004.215.014.042.026.086-.001.126-.119.244-.212.501-.362.73l.178-.003c-.084.12-.226.174-.332.27-.103.078-.142.21-.24.293a.483.483 0 0 0-.125.148c-.211.14-.461.205-.686.318l-.005-.125c-.163.036-.326.068-.486.114-.138.038-.222.163-.343.229-.097.035-.21.044-.281.127a5.9 5.9 0 0 1-2.211-.232 4.2 4.2 0 0 0 .238-.082.38.38 0 0 1 .119-.22c.097.004.152.086.209.153.157-.033.268-.158.403-.237l.078.097c.097-.103.193-.209.315-.281.162-.096.238-.287.407-.373.15-.11.358-.074.5-.197.086-.078.21-.063.314-.098.08-.05.14-.13.225-.173.097-.016.214.04.294-.035.136-.11.264-.231.41-.33.148-.091.179-.282.307-.39.064-.042.142-.049.212-.078z"/><path fill="#C2A44D" d="M5.694 11.412h.151c.117.138.267.29.46.29.151-.015.076-.195.056-.29l.702-.001a.362.362 0 0 0-.125.27l-.194.059a.71.71 0 0 1-.19.329l-.12-.015-.089.202c-.071-.017-.162-.08-.219-.001-.095.146-.147.318-.26.453a4.926 4.926 0 0 1-.06-.124 5.1 5.1 0 0 1-.284.116c.086-.153.194-.294.258-.457-.023-.15-.105-.288-.107-.442-.003-.132-.068-.271.021-.39z"/><path fill="#CEB052" d="M5.522 12.7c.096-.035.19-.075.283-.116l.06.124a.66.66 0 0 0 .247.232c.148.01.297-.02.445-.003.06-.009.099.034.132.077l-.046.099a.379.379 0 0 0-.12.22 4.2 4.2 0 0 1-.238.083 6.459 6.459 0 0 1-1.188-.534c.092-.018.12-.113.168-.18.082-.023.172.01.257-.002z"/><path fill="#D2BA6B" d="M10.298 12.984c.16-.1.364-.198.54-.072a5.45 5.45 0 0 1-2.341.735c.072-.083.184-.092.28-.127.122-.066.206-.191.344-.229.16-.046.323-.078.486-.114l.004.125c.226-.113.476-.177.687-.318z"/></g></svg>