<svg xmlns="http://www.w3.org/2000/svg" width="16" height="16" viewBox="0 0 16 16"><defs><linearGradient x1="28.201%" x2="103.372%" y1="15.347%" y2="84.653%"><stop offset="0%" stop-color="#00AAE4"/><stop offset="100%" stop-color="#006097"/></linearGradient></defs><path fill="url(#a)" fill-rule="nonzero" d="M11.81 9.323c-.424-.245-.902-.316-1.375-.332-.397-.014-.99-.269-.99-.991 0-.538.437-.971.99-.99.473-.017.951-.088 1.375-.333a2.506 2.506 0 1 0-3.759-2.17c0 .485.173.932.393 1.346.185.349.28.996-.356 1.363-.473.273-1.064.1-1.358-.372-.25-.398-.55-.771-.97-1.014a2.506 2.506 0 1 0 0 4.34c.42-.242.72-.616.97-1.014.204-.327.714-.744 1.357-.372.473.273.619.87.357 1.363-.22.414-.393.861-.393 1.347a2.506 2.506 0 1 0 3.76-2.17z"/></svg>