<svg xmlns="http://www.w3.org/2000/svg" width="16" height="16" viewBox="0 0 16 16"><defs><linearGradient id="vertcoin_svg__a" x1="18.662%" x2="81.66%" y1="29.142%" y2="66.336%"><stop offset="65.66%" stop-color="#FFF"/><stop offset="100%" stop-color="#BCBEC0"/></linearGradient><linearGradient id="vertcoin_svg__b" x1="3.439%" x2="82.828%" y1="111.005%" y2="45.024%"><stop offset="65.66%" stop-color="#FFF"/><stop offset="100%" stop-color="#BCBEC0"/></linearGradient></defs><g fill="none" fill-rule="nonzero"><path fill="#1C5C34" d="M13.991 7.998a5.994 5.994 0 1 1-11.987 0 5.994 5.994 0 0 1 11.987 0z"/><path fill="#FFF" d="M7.962 9.52L6.379 7.455 3.78 7.453l3.833 5.073c.126.19.382.24.571.114l.024-.037a.412.412 0 0 0 .09-.098l5.07-7.172s-.08-.286-.543-.904c-.462-.618-.727-.802-.727-.802L7.962 9.52z"/><path fill="url(#vertcoin_svg__a)" d="M6.716 11.346L5.501 9.73l1.446-1.528L7.964 9.52z"/><path fill="url(#b)" d="M3.78 7.45l-.739.844h1.377z"/></g></svg>