<svg xmlns="http://www.w3.org/2000/svg" width="16" height="16" viewBox="0 0 16 16"><g fill="none" fill-rule="evenodd"><path fill="#C87035" d="M7.994 13.972A5.99 5.99 0 0 1 2 7.979C2 4.674 4.689 1.999 8.007 2c3.305.001 5.994 2.685 5.988 5.986a5.99 5.99 0 0 1-6.001 5.986zm-2.445-3.248l.042-.08 1.613-2.83 1.409-2.48c.02-.036.04-.05.081-.05.548.003 1.096.002 1.644.002h.08L8.141 9.293l.056.002c1.372 0 2.745 0 4.117.002.046 0 .06-.018.072-.057a4.52 4.52 0 0 0-1.26-4.536 4.188 4.188 0 0 0-1.003-.706 4.483 4.483 0 0 0-2.881-.435A4.438 4.438 0 0 0 4.7 4.962c-.09.098-.174.203-.26.305l.008.017h3.916l-.053.098c-.239.421-.48.842-.716 1.265-.027.05-.056.064-.11.064-1.233-.002-2.467-.001-3.7-.001h-.073c-.625 1.961.259 4.419 2.472 5.405 2.145.955 4.393.076 5.446-1.391H5.549zm6.893 1.032c.76-.843 1.436-2.23 1.395-3.898-.035-1.373-.505-2.58-1.386-3.646l-.81.814a4.668 4.668 0 0 1 .016 5.933l.785.797z"/><path d="M12.442 11.756l-.785-.797a4.668 4.668 0 0 0-.015-5.933l.809-.814c.881 1.066 1.351 2.273 1.386 3.646.041 1.667-.635 3.055-1.395 3.898z"/></g></svg>